<?xml version="1.0" encoding="UTF-8" standalone="no"?>
<!DOCTYPE svg PUBLIC "-//W3C//DTD SVG 1.1//EN" "http://www.w3.org/Graphics/SVG/1.1/DTD/svg11.dtd">
<svg width="100%" height="100%" viewBox="0 0 1080 1080" version="1.1" xmlns="http://www.w3.org/2000/svg" xmlns:xlink="http://www.w3.org/1999/xlink" xml:space="preserve" xmlns:serif="http://www.serif.com/" style="fill-rule:evenodd;clip-rule:evenodd;stroke-linecap:round;stroke-linejoin:round;stroke-miterlimit:1.5;">
    <g transform="matrix(1.16017,0,0,1.16186,-186.067,-100.012)">
        <rect x="171.024" y="96.896" width="908.976" height="908.976" style="fill:rgb(89,93,89);stroke:rgb(89,93,89);stroke-width:32.41px;"/>
    </g>
    <g transform="matrix(1,0,0,1,-11.6974,-63.2176)">
        <path d="M546.082,329.662C546.076,329.442 539.424,327.764 539.604,327.585C542.079,325.109 559.937,329.651 557.733,334.059C557.244,335.038 558.281,335.753 559.028,336.002C562.591,337.189 593.455,347.119 594.64,348.304C596.901,350.566 586.467,366.994 585.575,369.671C583.369,376.289 591.665,375.357 589.46,381.973C589.363,382.263 588.982,382.367 588.812,382.621C583.763,390.194 576.769,397.642 572.625,405.93C570.318,410.545 570.331,422.469 566.798,426.002C566.358,426.441 567.404,425.924 567.445,426.649C570.701,483.38 572.625,467.778 572.625,467.778C572.625,467.778 567.445,481.844 567.445,480.118C567.445,473.962 555.53,473.664 553.848,467.778C550.872,457.363 553.848,379.669 553.848,369.671C553.848,361.09 565.285,351.112 564.208,352.189" style="fill:none;stroke:rgb(241,80,96);stroke-width:37.63px;"/>
    </g>
    <g transform="matrix(1,0,0,1,-11.6974,-63.2176)">
        <path d="M534.424,699.214C534.421,700.595 544.965,626.798 534.424,676.324C532.588,684.951 526.489,776.579 524.064,783.412C520.35,793.879 514.042,802.809 509.172,812.549C508.006,814.881 505.935,819.671 505.935,819.671C505.935,819.671 506.529,816.127 507.23,814.491C513.502,799.856 519.04,773.052 522.122,773.052C523.201,773.052 522.463,775.266 522.122,776.29C520.169,782.148 518.294,788.727 517.589,795.067C516.551,804.413 517.489,815.372 513.704,824.203C513.571,824.515 512.665,826.401 511.762,825.498C509.275,823.012 517.333,799.119 518.237,797.009C518.239,797.005 524.581,785.094 525.359,786.649C525.839,787.61 514.972,806.685 513.057,813.196C511.679,817.881 510.23,822.679 509.172,827.441C508.786,829.178 507.877,834.4 507.877,832.621C507.877,821.874 514.028,808.923 517.589,798.952C519.323,794.096 522.663,789.555 524.064,784.707C531.401,759.318 531.339,743.904 531.186,744.056C524.845,750.398 514.483,805.551 512.409,813.844C511.032,819.352 509.82,830.678 509.82,830.678C509.82,830.678 509.849,826.705 510.467,824.851C512.731,818.059 515.606,811.533 519.532,805.426C520.394,804.085 530.864,786.488 532.481,787.297C534.45,788.281 531.939,791.703 531.186,793.772C526.655,806.234 514.352,825.684 514.352,838.448C514.352,840.495 515.379,834.452 516.294,832.621C518.319,828.571 518.183,829.177 520.179,824.851C525.731,812.823 531.408,801.403 535.071,788.592C543.155,760.325 552.631,729.817 554.496,733.547C555.867,736.289 535.46,809.283 534.424,813.844C534.21,814.783 527.665,832.052 527.302,831.326C526.859,830.44 549.406,769.815 550.611,769.815C554.536,769.815 545.847,771.863 545.431,773.052C541.388,784.605 541.343,756.622 535.071,829.383C534.414,837.01 526.654,850.75 526.654,850.75C526.654,850.75 532.145,840.097 534.424,834.563C538.136,825.548 540.226,815.35 546.079,807.369C546.119,807.314 557.59,794.637 558.381,797.009C561.846,807.405 574.58,815.568 570.035,824.203C567.338,829.329 542.412,844.848 538.956,849.455C538.088,850.613 537.014,854.788 537.014,853.34C537.014,847.043 548.908,835.649 552.553,830.678C553.262,829.712 562.46,815.981 563.561,817.081C567.535,821.055 556.314,843.456 554.496,846.865C551.211,853.025 545.431,862.897 545.431,860.462C545.431,851.787 559.529,836.485 564.856,829.383C564.994,829.198 566.349,826.245 567.445,826.793C572.301,829.221 557.435,866.29 557.086,866.29C557.004,866.29 560.081,859.146 566.798,850.75C567.751,849.558 570.035,845.987 570.035,847.513C570.035,849.889 570.486,864.347 566.15,864.347C564.507,864.347 567.138,861.152 568.093,859.815C570.511,856.43 584.404,848.683 580.395,852.693" style="fill:none;stroke:rgb(0,191,211);stroke-width:37.63px;"/>
    </g>
    <g transform="matrix(1,0,0,1,-11.6974,-63.2176)">
        <path d="M621.721,347.698C587.184,435.289 566.72,521.646 560.842,603.835C552.7,717.667 572.538,823.505 621.721,913.556" style="fill:none;stroke:rgb(0,191,211);stroke-width:37.63px;"/>
    </g>
    <g transform="matrix(1,0,0,1,-23.2481,-53.0991)">
        <path d="M516.109,282.761C589.807,453.041 560.139,657.942 478.367,832.147" style="fill:none;stroke:rgb(241,80,96);stroke-width:37.63px;"/>
    </g>
    <g transform="matrix(1,0,0,1,-11.6974,-63.2176)">
        <path d="M621.721,913.556C475.872,823.96 302.906,813.197 131.915,913.556" style="fill:none;stroke:rgb(0,191,211);stroke-width:37.63px;"/>
    </g>
    <g transform="matrix(1.01098,0,0,1,-20.7212,-63.2176)">
        <path d="M508.003,292.879C584.201,332.025 660.044,353.977 731.789,358.18C819.564,363.321 901.204,341.894 969.853,292.879" style="fill:none;stroke:rgb(241,80,96);stroke-width:37.42px;"/>
    </g>
</svg>
