<svg xmlns="http://www.w3.org/2000/svg" width="512" height="512" viewBox="0 0 512 512" version="1.1">
	<path d="M 185.424 60.050 C 178.177 62.848, 172.594 68.047, 169.003 75.342 L 165.922 81.601 165.711 236.550 L 165.500 391.500 103 392 L 40.500 392.500 34.786 395.306 C 9.985 407.485, 12.725 443.899, 39.058 452.095 C 44.951 453.929, 50.278 454, 182.554 454 C 334.177 454, 324.179 454.412, 333.843 447.764 C 338.561 444.518, 343.446 437.639, 345.013 432.035 C 345.645 429.776, 345.999 372.836, 345.995 274.279 L 345.988 120.057 409.244 119.779 L 472.500 119.500 476.795 117.207 C 483.420 113.670, 488.670 108.374, 491.707 102.166 C 493.998 97.483, 494.467 95.222, 494.437 89.006 C 494.377 76.492, 488.309 66.755, 477.161 61.280 L 471.500 58.500 331 58.295 C 193.592 58.094, 190.388 58.133, 185.424 60.050 M 228 256 L 228 392 256 392 L 284 392 284 256 L 284 120 256 120 L 228 120 228 256" stroke="none" fill="black" fill-rule="evenodd"/>
</svg>