<svg xmlns="http://www.w3.org/2000/svg" width="512" height="512" viewBox="0 0 512 512" version="1.1">
	<path d="M 180.500 51.492 C 172.572 54.740, 165.114 62.385, 162.162 70.288 L 160 76.075 160 238.510 L 160 400.945 93.750 401.223 L 27.500 401.500 22.500 403.964 C -1.919 415.996, -2.359 450.329, 21.755 462.200 L 28.458 465.500 177.979 465.500 L 327.500 465.500 332.848 462.538 C 339.498 458.855, 346.235 451.485, 348.658 445.244 C 350.416 440.715, 350.512 433.096, 350.765 277.277 L 351.029 114.054 417.765 113.777 L 484.500 113.500 489.855 110.534 C 513.619 97.371, 512.248 63.171, 487.500 51.798 L 482.500 49.500 334.500 49.267 L 186.500 49.034 180.500 51.492 M 225.462 115.250 C 225.200 115.938, 225.102 180.400, 225.243 258.500 L 225.500 400.500 255.250 400.765 L 285 401.030 285 257.515 L 285 114 255.469 114 C 232.764 114, 225.827 114.289, 225.462 115.250" stroke="none" fill="black" fill-rule="evenodd"/>
</svg>